@startuml
hide methods
set separator none

legend top left
<size:20><b>LEGEND: </b> <color:red><b>0001a</b></color></size>
1. <b>Bold</b> = Mandatory fields
2. <i>Italic</i> = Optional fields
3. ..       = incomplete list (complete values on afdCodelists)
end legend

class berichtstructuur {}

class commonTechnical.default {
    {static} **entityType : string = "default"**
    {field} **messageId : string(70)**
    {field} **creationDateTime : timestamp**
    {field} <i>testMessage : boolean</i>
}

class party.sender {
    {static} **entityType : string = "sender"**
    {field} **refKey : string(70)**
    {field} <i>rsinNumber : string(9)</i>
    {field} **organizationName : string(60)**
    {field} <i>applicationSenderName : string(60)</i>
}

class party.contact {
    {static} **entityType : string = "contact"**
    {field} **emailWork : string(60)**
    {field} **workPhoneNumber : string(60)**
}

class party.receiver {
    {static} **entityType : string = "receiver"**
    {field} **refKey : string(70)**
    {field} <i>rsinNumber : string(9)</i>
    {field} **organizationName : string(60)**
}

class commonFunctional.default {
    {static} **entityType : string = "default"**
    {field} **function : string**
    {field} **afdDefinitionName : string(80)**
    {field} **afdDefinitionVersion : string(80)**
    {field} <i>originalMessageId : string(70)</i>
}

class party.pensionProvider {
    {static} **entityType : string = "pensionProvider"**
    {field} **puvCode : string**
    {field} <i>rsinNumber : string(9)</i>
    {field} **organizationName : string(60)**
}

class pension.scheme {
    {static} **entityType : string = "scheme"**
    {field} **refKey : string(70)**
    {field} **pensionSchemeName : string(60)**
    {field} **startAmount : decimal**
}

class financialInformation.reportingPeriod {
    {static} **entityType : string = "reportingPeriod"**
    {field} **startDate : date**
}

class pension.cohort {
    {static} **entityType : string = "cohort"**
    {field} **refKey : string(70)**
    {field} **description : string(60)**
    {field} <i>participationStatus : string</i>
    {field} <i>startAge : integer</i>
    {field} <i>endAge : integer</i>
    {field} **reserveIndicator : boolean**
    {field} <i>reserveType : string</i>
    {field} <i>reserveDescription : string(60)</i>
    {field} **startAmount : decimal**
}

class investment.portfolio {
    {static} **entityType : string = "portfolio"**
    {field} **refKey : string(70)**
    {field} **description : string(60)**
    {field} <i>startExposureAmount : decimal</i>
    {field} <i>startExposurePercentage : decimal</i>
}

class investment.portfolio_1 {
    {static} **entityType : string = "portfolio"**
    {field} **refKey : string(70)**
    {field} **description : string(60)**
    {field} <i>startExposureAmount : decimal</i>
    {field} <i>startExposurePercentage : decimal</i>
}

class document.default {
    {static} **entityType : string = "default"**
    {field} **refKey : string(70)**
    {field} **fileName : string(60)**
    {field} **fileExtension : string**
}

enum ADNDNS {
    AO aspirant actief
    AO aspirant niet actief
    Actief
}

enum ADNFUN {
    Nieuw
    Wijzigen
    Aanmelden bestaande polis op pakket
}

enum AFDIDP {
    St. Pf. Openbare Bibliotheken
    AEGON Levensverzekering N.V.
    Pensioenfonds voor de Accountancy
    ..
}

enum AFDRES {
    Solidariteitsreserve
    Minimaal vereist eigen vermogen (MVEV)
    Operationele reserve
}

enum cdl_251 {
    pdf
    csv
    txt
}

berichtstructuur o-- "1..1" commonFunctional.default
berichtstructuur o-- "1..1" commonTechnical.default
berichtstructuur o-- "0..99" document.default
berichtstructuur o-- "1..1" party.pensionProvider
commonTechnical.default o-- "1..1" party.receiver
commonTechnical.default o-- "1..1" party.sender
party.pensionProvider o-- "1..999" pension.scheme
party.sender o-- "0..9" party.contact
pension.cohort o-- "0..99" investment.portfolio
pension.scheme o-- "1..1" financialInformation.reportingPeriod
pension.scheme o-- "0..99" investment.portfolio_1
pension.scheme o-- "1..99999" pension.cohort
commonFunctional.default o-- "function" ADNFUN
document.default o-- "fileExtension" cdl_251
party.pensionProvider o-- "puvCode" AFDIDP
pension.cohort o-- "participationStatus" ADNDNS
pension.cohort o-- "reserveType" AFDRES
@enduml